<?xml version="1.0" encoding="UTF-8" standalone="no"?>
<!-- Created with Inkscape (http://www.inkscape.org/) -->

<svg
   xmlns:dc="http://purl.org/dc/elements/1.1/"
   xmlns:cc="http://creativecommons.org/ns#"
   xmlns:rdf="http://www.w3.org/1999/02/22-rdf-syntax-ns#"
   xmlns:svg="http://www.w3.org/2000/svg"
   xmlns="http://www.w3.org/2000/svg"
   xmlns:sodipodi="http://sodipodi.sourceforge.net/DTD/sodipodi-0.dtd"
   xmlns:inkscape="http://www.inkscape.org/namespaces/inkscape"
   width="744.09448819"
   height="1052.3622047"
   id="svg2"
   version="1.1"
   inkscape:version="0.48.2 r9819"
   sodipodi:docname="Level_1.svg">
  <defs
     id="defs4" />
  <sodipodi:namedview
     id="base"
     pagecolor="#ffffff"
     bordercolor="#666666"
     borderopacity="1.0"
     inkscape:pageopacity="0.0"
     inkscape:pageshadow="2"
     inkscape:zoom="2.8"
     inkscape:cx="269.11872"
     inkscape:cy="686.84157"
     inkscape:document-units="px"
     inkscape:current-layer="layer1"
     showgrid="false"
     inkscape:window-width="1920"
     inkscape:window-height="1018"
     inkscape:window-x="-8"
     inkscape:window-y="-8"
     inkscape:window-maximized="1" />
  <metadata
     id="metadata7">
    <rdf:RDF>
      <cc:Work
         rdf:about="">
        <dc:format>image/svg+xml</dc:format>
        <dc:type
           rdf:resource="http://purl.org/dc/dcmitype/StillImage" />
        <dc:title></dc:title>
      </cc:Work>
    </rdf:RDF>
  </metadata>
  <g
     inkscape:label="Layer 1"
     inkscape:groupmode="layer"
     id="layer1">
    <path
       style="fill:#55ff55;stroke:#000000;stroke-width:2.58633614;stroke-linecap:butt;stroke-linejoin:miter;stroke-opacity:1"
       d="m 85,281.48188 257.14286,0 c 0,0 66.42857,8.36142 69.28571,-65.69685 2.85714,-74.05828 2.14286,-68.11924 2.14286,-68.11924 0,0 0.71429,-41.86728 44.28572,-37.08932 43.57143,4.77795 45,51.36299 45,51.36299 0,0 -2.85715,43.09518 4.28571,90.87469 7.14285,47.77953 30,102.72601 17.85714,125.42127 -12.14286,22.69529 -15.71429,32.25119 -88.57143,40.61261 C 363.57143,427.20945 360,392.56928 360,392.56928 c 0,0 -30.71429,-64.50236 -95,-17.91731 -64.28571,46.58503 -110.71429,10.75038 -110.71429,10.75038 0,0 -28.65775,-13.56373 -60.714281,7.16693 C 70,407.81271 47.253838,413.39091 11.785714,340.2459 -42.292849,228.72105 85,281.48188 85,281.48188 z"
       id="path2985"
       inkscape:connector-curvature="0"
       sodipodi:nodetypes="ccscscssscscssc"
       inkscape:export-filename="C:\Users\Fahmi\Documents\Game Development\Flat_World\media\textures\Level_1_Island_1.png"
       inkscape:export-xdpi="173.97388"
       inkscape:export-ydpi="173.97388" />
  </g>
</svg>
